<?xml version="1.0" encoding="UTF-8"?>
<svg version="1.1" viewBox="0 0 16.3 16.8" xmlns="http://www.w3.org/2000/svg"><g><g fill="none" stroke="#fff"><path d="m6.6313 7.0426c-0.24263-0.01344-1.2345-0.09108-1.4717-0.1152-1.5098-0.15353-3.2614-0.4754-4.5641-0.83869l-0.19844-0.05534v-2.2586c0-1.2422 0.0053-2.2639 0.0118-2.2704 0.0065-0.0065 0.24834 0.0419 0.53744 0.10752 1.4605 0.33152 2.8008 0.5407 4.2381 0.66144 3.0917 0.25972 6.1844 0.07879 9.6242-0.56302 0.33668-0.06282 1.1255-0.22364 1.17-0.23853 0.01647-0.0055 0.02067 0.45659 0.02067 2.274v2.2809l-0.06244 0.01681c-0.4468 0.12031-1.6289 0.37642-2.2857 0.49521-1.1002 0.19897-2.6364 0.397-3.4728 0.44765-0.57361 0.03474-3.1875 0.0763-3.5469 0.05639z" opacity=".5" stroke-width=".005"/><path d="m6.7553 13.056c-0.96946-0.03745-2.3396-0.18767-3.4892-0.38256-0.78637-0.13331-1.3545-0.2535-2.2779-0.48191l-0.61595-0.15236 0.0082-0.75284c0.0045-0.41406 0.01195-1.564 0.01657-2.5553 0.0046-0.99136 0.0133-1.9541 0.01929-2.1394l0.01089-0.33694 0.09239 0.01004c0.05082 0.0055 0.29331 0.0589 0.53888 0.11861 1.2503 0.30403 2.2567 0.4888 3.5537 0.65246 1.1759 0.14839 1.3123 0.15458 3.4412 0.15611 1.5121 0.0011 1.7617-0.0023 2.0671-0.02809 1.9506-0.16472 3.3727-0.38356 5.2551-0.80865 0.3255-0.07351 0.59339-0.13083 0.59531-0.12739 0.01015 0.01815-0.01495 5.8135-0.02524 5.8293-0.0067 0.01032-0.03275 0.02224-0.05787 0.02648-0.02512 0.0042-0.28111 0.06083-0.56887 0.12575-2.0002 0.45124-3.931 0.72724-5.802 0.82935-0.40215 0.02195-2.3291 0.03405-2.7616 0.01734z" opacity=".5" stroke-width=".005"/><path d="m6.3304 17.565c-1.8063-0.052233-4.3826-0.37081-6.1401-0.75926l-0.08776-0.01939 0.0054-2.2801c0.0029-1.2541 0.0112-2.2893 0.01834-2.3006 0.01158-0.01823 0.03569-0.01576 0.22296 0.02283 4.3941 0.90558 8.8769 0.99276 13.638 0.26519 0.29104-0.04448 0.79935-0.1278 1.1296-0.18516 0.33022-0.05736 0.60555-0.10032 0.61185-0.09548 0.0063 0.0048 0.01365 1.036 0.01634 2.2915l0.0049 2.2827-0.0632 0.0131c-0.18174 0.03767-1.089 0.19815-1.4349 0.25382-1.5674 0.25227-3.289 0.42979-4.8286 0.49789-0.38772 0.01715-2.6231 0.02649-3.0923 0.01292z" opacity=".5" stroke-width=".0043864"/><path d="m6.7068 12.995c-0.24263-0.01344-1.2345-0.09108-1.4717-0.1152-1.5098-0.15353-3.2614-0.4754-4.5641-0.83869l-0.19844-0.05534v-2.2586c0-1.2422 0.0053-2.2639 0.0118-2.2704 0.0065-0.0065 0.24834 0.04189 0.53744 0.10752 1.4605 0.33152 2.8008 0.5407 4.2381 0.66144 3.0917 0.25971 6.1844 0.07879 9.6242-0.56302 0.33668-0.06282 1.1255-0.22364 1.17-0.23853 0.01647-0.0055 0.02067 0.45659 0.02067 2.274v2.2809l-0.06245 0.01681c-0.4468 0.12031-1.6289 0.37642-2.2857 0.49521-1.1002 0.19897-2.6364 0.397-3.4728 0.44765-0.57361 0.03474-3.1875 0.0763-3.5469 0.05639z" opacity=".5" stroke-width=".005"/></g><g fill="#003560" stroke="#fff" stroke-width=".1"><path d="m0.29684 6.0873c4.8635 1.4652 10.144 1.3837 15.781 0v4.7093c-4.7969 1.0837-9.7824 1.7263-15.781 0z"/><path d="m0.29684 10.797c4.8635 1.4652 10.144 1.3837 15.781 0v4.7093c-4.7969 1.0837-9.7824 1.7263-15.781 0z"/><path d="m0.29684 1.3781c5.1173 1.3301 10.391 1.2011 15.781 0m-15.781 0c4.473-1.504 9.356-1.5777 13.93-0.48777 0.62168 0.14428 1.2389 0.30751 1.8511 0.48777m-15.781 0c5.151 1.3684 10.611 1.1541 15.781 0v4.7093c-3.9975 0.93046-8.1619 1.4165-12.244 0.7749-1.1945-0.17907-2.3762-0.44076-3.5368-0.7749v-4.7093z" stroke-linecap="round" stroke-linejoin="bevel"/></g><g transform="translate(-6.9364 -3.8696)"><path d="m9.1889 9.8395 0.89461-0.94598 0.84072 0.889 0.80126-0.84728 0.89872 0.95033 0.83794-0.88606" fill="none" stroke="#fff" stroke-width=".14911px"/><path d="m11.726 8.9353v-0.80261" fill="none" stroke="#fff" stroke-width=".14911px"/><text transform="scale(.97247 1.0283)" x="11.487452" y="7.9059453" fill="#000000" font-family="sans-serif" font-size="5.9645px" letter-spacing="0px" stroke-width=".14911" word-spacing="0px" style="line-height:1.25" xml:space="preserve"><tspan x="11.487452" y="7.9059453" fill="#ffffff" font-size="1.5906px" stroke="#ffffff" stroke-linejoin="round" stroke-width=".14911">R<tspan baseline-shift="sub" fill="#ffffff" font-size="65%" stroke="#ffffff" stroke-linejoin="round">1</tspan></tspan></text><path d="m12.624 9.8856 0.89461-0.94598 0.84071 0.889 0.80127-0.84728 0.89872 0.95033 0.83794-0.88606" fill="none" stroke="#fff" stroke-width=".14911px"/><path d="m15.161 8.9813v-0.80261" fill="none" stroke="#fff" stroke-width=".14911px"/><text transform="scale(.97247 1.0283)" x="15.020021" y="7.9507375" fill="#ffffff" font-family="sans-serif" font-size="5.9645px" letter-spacing="0px" stroke-width=".14911" word-spacing="0px" style="line-height:1.25" xml:space="preserve"><tspan x="15.020021" y="7.9507375" fill="#ffffff" font-size="1.5906px" stroke="#ffffff" stroke-linejoin="round" stroke-width=".14911">R<tspan baseline-shift="sub" fill="#ffffff" font-size="65%" stroke="#ffffff" stroke-linejoin="round">2</tspan></tspan></text><path d="m16.06 9.9317 0.89461-0.94598 0.84071 0.889 0.80127-0.84728 0.89872 0.95033 0.83794-0.88606" fill="none" stroke="#fff" stroke-width=".14911px"/><path d="m18.596 9.0274v-0.80261" fill="none" stroke="#fff" stroke-width=".14911px"/><text transform="scale(.97247 1.0283)" x="18.552591" y="7.9955373" fill="#ffffff" font-family="sans-serif" font-size="5.9645px" letter-spacing="0px" stroke-width=".14911" word-spacing="0px" style="line-height:1.25" xml:space="preserve"><tspan x="18.552591" y="7.9955373" fill="#ffffff" font-size="1.5906px" stroke="#ffffff" stroke-linejoin="round" stroke-width=".14911">R<tspan baseline-shift="sub" fill="#ffffff" font-size="65%" stroke="#ffffff" stroke-linejoin="round">3</tspan></tspan></text></g><text fill="#000000" font-family="sans-serif" font-size="10.583px" letter-spacing="0px" word-spacing="0px" style="line-height:1.25;shape-inside:url(#rect1826);white-space:pre" xml:space="preserve"/><g transform="translate(-6.9364 -3.8696)"><path d="m10.989 14.585 0.89461-0.94598 0.84072 0.889 0.80126-0.84728 0.89872 0.95033 0.83794-0.88606" fill="none" stroke="#fff" stroke-width=".14911px"/><path d="m13.526 13.681v-0.80261" fill="none" stroke="#fff" stroke-width=".14911px"/><text transform="scale(.97247 1.0283)" x="13.338943" y="12.520827" fill="#000000" font-family="sans-serif" font-size="5.9645px" letter-spacing="0px" stroke-width=".14911" word-spacing="0px" style="line-height:1.25" xml:space="preserve"><tspan x="13.338943" y="12.520827" fill="#ffffff" font-size="1.5906px" stroke="#ffffff" stroke-linejoin="round" stroke-width=".14911">R<tspan baseline-shift="sub" fill="#ffffff" font-size="65%" stroke="#ffffff" stroke-linejoin="round">1</tspan></tspan></text><path d="m14.425 14.631 0.89461-0.94598 0.84071 0.889 0.80127-0.84728 0.89872 0.95033 0.83794-0.88606" fill="none" stroke="#fff" stroke-width=".14911px"/><path d="m16.961 13.727v-0.80261" fill="none" stroke="#fff" stroke-width=".14911px"/><text transform="scale(.97247 1.0283)" x="16.871513" y="12.565619" fill="#ffffff" font-family="sans-serif" font-size="5.9645px" letter-spacing="0px" stroke-width=".14911" word-spacing="0px" style="line-height:1.25" xml:space="preserve"><tspan x="16.871513" y="12.565619" fill="#ffffff" font-size="1.5906px" stroke="#ffffff" stroke-linejoin="round" stroke-width=".14911">R<tspan baseline-shift="sub" fill="#ffffff" font-size="65%" stroke="#ffffff" stroke-linejoin="round">2</tspan></tspan></text><g><path d="m7.9279 19.094 0.89461-0.94598 0.84072 0.889 0.80126-0.84728 0.89872 0.95033 0.83794-0.88606" fill="none" stroke="#fff" stroke-width=".14911px"/><path d="m10.464 18.19v-0.80261" fill="none" stroke="#fff" stroke-width=".14911px"/><text transform="scale(.97247 1.0283)" x="10.190702" y="16.906006" fill="#000000" font-family="sans-serif" font-size="5.9645px" letter-spacing="0px" stroke-linejoin="round" stroke-width=".14911" word-spacing="0px" style="line-height:1.25" xml:space="preserve"><tspan x="10.190702" y="16.906006" fill="#ffffff" font-size="1.5906px" stroke="#ffffff" stroke-linejoin="round" stroke-width=".14911">R<tspan baseline-shift="sub" fill="#ffffff" font-size="65%" stroke="#ffffff" stroke-linejoin="round">1</tspan></tspan></text><path d="m11.363 19.14 0.89461-0.94598 0.84071 0.889 0.80127-0.84728 0.89872 0.95033 0.83794-0.88606" fill="none" stroke="#fff" stroke-width=".14911px"/><path d="m13.9 18.236v-0.80261" fill="none" stroke="#fff" stroke-width=".14911px"/><text transform="scale(.97247 1.0283)" x="13.723271" y="16.950798" fill="#ffffff" font-family="sans-serif" font-size="5.9645px" letter-spacing="0px" stroke-linejoin="round" stroke-width=".14911" word-spacing="0px" style="line-height:1.25" xml:space="preserve"><tspan x="13.723271" y="16.950798" fill="#ffffff" font-size="1.5906px" stroke="#ffffff" stroke-linejoin="round" stroke-width=".14911">R<tspan baseline-shift="sub" fill="#ffffff" font-size="65%" stroke="#ffffff" stroke-linejoin="round">2</tspan></tspan></text><path d="m14.799 19.187 0.89461-0.94598 0.84071 0.889 0.80127-0.84728 0.89872 0.95033 0.83794-0.88606" fill="none" stroke="#fff" stroke-width=".14911px"/><path d="m17.335 18.282v-0.80261" fill="none" stroke="#fff" stroke-width=".14911px"/><text transform="scale(.97247 1.0283)" x="17.255842" y="16.995598" fill="#ffffff" font-family="sans-serif" font-size="5.9645px" letter-spacing="0px" stroke-linejoin="round" stroke-width=".14911" word-spacing="0px" style="line-height:1.25" xml:space="preserve"><tspan x="17.255842" y="16.995598" fill="#ffffff" font-size="1.5906px" stroke="#ffffff" stroke-linejoin="round" stroke-width=".14911">R<tspan baseline-shift="sub" fill="#ffffff" font-size="65%" stroke="#ffffff" stroke-linejoin="round">3</tspan></tspan></text><g><path d="m18.177 19.293 0.89461-0.94598 0.84071 0.889 0.80127-0.84728 0.89872 0.95033 0.83794-0.88606" fill="none" stroke="#fff" stroke-width=".14911px"/><path d="m20.714 18.388v-0.80261" fill="none" stroke="#fff" stroke-width=".14911px"/><text transform="scale(.97247 1.0283)" x="20.730141" y="17.098665" fill="#ffffff" font-family="sans-serif" font-size="5.9645px" letter-spacing="0px" stroke="#ffffff" stroke-linejoin="round" stroke-width=".149" word-spacing="0px" style="line-height:1.25" xml:space="preserve"><tspan x="20.730141" y="17.098665" fill="#ffffff" font-size="1.5906px" stroke="#ffffff" stroke-linejoin="round" stroke-width=".149">R<tspan baseline-shift="sub" font-size="65%" stroke="#ffffff" stroke-linejoin="round" stroke-width=".149">4</tspan></tspan></text></g></g></g></g><text fill="#000000" font-family="sans-serif" font-size="10.583px" letter-spacing="0px" word-spacing="0px" style="line-height:1.25;shape-inside:url(#rect157);white-space:pre" xml:space="preserve"/></svg>
